<svg width="45" height="45" viewBox="0 0 45 45" fill="none" xmlns="http://www.w3.org/2000/svg">
<g clip-path="url(#clip0_428_1261)">
<path d="M8.07614 1.41504e-06V30.9955H39.8553V2.08975C39.8556 1.81525 39.8018 1.54337 39.697 1.28968C39.5921 1.036 39.4382 0.805501 39.2441 0.611382C39.0501 0.417263 38.8196 0.26334 38.5659 0.15843C38.3122 0.053519 38.0404 -0.00031823 37.7659 1.41504e-06H8.07614ZM7.7282 0.133906L1.28516 4.01645V34.9533L7.7282 31.0711V0.133906ZM23.693 6.44304C27.2165 6.44304 29.7475 8.22959 29.7475 10.7852V11.7281C29.7475 13.192 28.3579 14.4582 26.6459 14.8551C28.3579 15.1527 30.4174 16.319 30.4174 18.577V19.7437C30.4174 22.5477 27.6144 24.6073 23.8176 24.6073C18.954 24.6073 17.2164 22.0513 16.9433 19.4953H21.0132C21.1371 20.5374 21.8569 21.5299 23.5938 21.5299C25.1074 21.5299 26.1002 20.8104 26.1002 19.2472V18.7259C26.1002 16.8401 24.2141 16.5175 22.9736 16.5175H21.6335V13.6142H22.9736C24.2141 13.6142 25.4799 13.217 25.4799 11.7777V11.1824C25.4799 10.0411 24.7102 9.47047 23.4447 9.47047C21.9807 9.47047 21.3112 10.3887 21.2116 11.4804H17.1421C17.266 8.82523 19.5739 6.44304 23.693 6.44304ZM40.2036 6.79098V31.3438H7.95125L4.81143 33.2354V42.1401C4.81143 42.7404 5.04991 43.3162 5.47441 43.7407C5.8989 44.1652 6.47465 44.4036 7.07498 44.4036H43.1203V6.79098H40.2036ZM14.2101 34.2571H16.2787L17.6049 39.5415L18.9967 34.2761L18.9869 34.2571H20.999V40.8392H19.4379V36.5896L18.3382 40.8298V40.8392H16.7865L15.6209 36.42V40.8396H14.2101V34.2571ZM23.7239 34.2571H25.9146L27.8989 40.8392H26.2254L25.8206 39.4006H23.846L23.4793 40.8392H21.843L23.7239 34.2571ZM28.5785 34.2571H30.3751L31.4845 36.3541H31.4939L32.6317 34.2571H34.3711L32.4999 37.2196L34.5778 40.8392H32.7257L31.4567 38.3575L30.1683 40.8392H28.3624L30.4403 37.3601L28.5785 34.2571ZM24.8149 35.3387L24.1471 38.1785H25.5014L24.8149 35.3387Z" fill="black"/>
</g>
<defs>
<clipPath id="clip0_428_1261">
<rect width="44.4036" height="44.4036" fill="white"/>
</clipPath>
</defs>
</svg>
