<svg width="45" height="45" viewBox="0 0 45 45" fill="none" xmlns="http://www.w3.org/2000/svg">
<path fill-rule="evenodd" clip-rule="evenodd" d="M8.13809 0C5.97973 0 3.90978 0.843825 2.38359 2.34584C0.857404 3.84786 0 5.88503 0 8.00921V36.0414C0 38.1656 0.857404 40.2028 2.38359 41.7048C3.90978 43.2068 5.97973 44.0506 8.13809 44.0506H36.6214C38.7798 44.0506 40.8497 43.2068 42.3759 41.7048C43.9021 40.2028 44.7595 38.1656 44.7595 36.0414V8.00921C44.7595 5.88503 43.9021 3.84786 42.3759 2.34584C40.8497 0.843825 38.7798 0 36.6214 0H8.13809ZM5.11072 30.9796L11.609 12.7026V11.3811H16.797L23.987 30.9796H19.5314L17.8387 26.4003H10.8013L9.22453 30.9796H5.11072ZM11.9162 22.5039H16.6831L14.3027 14.8611L11.9162 22.5039ZM37.2908 27.2313V30.6352C36.5848 30.9155 34.6296 31.4702 32.4466 31.4702C29.7162 31.4702 24.7561 30.1827 24.7561 23.485C24.7561 17.5822 29.1791 15.8803 32.4466 15.8803C35.3681 15.8803 38.6356 17.9987 38.6356 22.0473V24.6964H29.1791C29.4477 25.7676 30.585 27.9121 32.9837 27.9121C35.3824 27.9121 36.8554 27.4576 37.2908 27.2313ZM29.2157 21.8591H34.7151C34.65 20.9261 34.0233 19.0579 32.0234 19.0579C30.0235 19.0579 29.3175 20.924 29.2157 21.8591Z" fill="black"/>
</svg>
