<svg width="45" height="45" viewBox="0 0 45 45" fill="none" xmlns="http://www.w3.org/2000/svg">
<path d="M36.8322 7.02569e-06H7.92733C6.88591 -0.00138684 5.85445 0.204635 4.89204 0.606271C3.92963 1.00791 3.05518 1.59726 2.31879 2.34058C1.58239 3.08389 0.998522 3.96656 0.600626 4.93802C0.20273 5.90947 -0.00137393 6.95062 6.96028e-06 8.00183V36.0488C-0.00137393 37.1 0.20273 38.1412 0.600626 39.1126C0.998522 40.0841 1.58239 40.9667 2.31879 41.7101C3.05518 42.4534 3.92963 43.0427 4.89204 43.4444C5.85445 43.846 6.88591 44.052 7.92733 44.0506H36.8322C37.8736 44.052 38.905 43.846 39.8675 43.4444C40.8299 43.0427 41.7043 42.4534 42.4407 41.7101C43.1771 40.9667 43.761 40.0841 44.1589 39.1126C44.5568 38.1412 44.7609 37.1 44.7595 36.0488V8.00183C44.7609 6.95062 44.5568 5.90947 44.1589 4.93802C43.761 3.96656 43.1771 3.08389 42.4407 2.34058C41.7043 1.59726 40.8299 1.00791 39.8675 0.606271C38.905 0.204635 37.8736 -0.00138684 36.8322 7.02569e-06ZM27.3592 31.0613H23.4603C23.3946 31.0664 23.3291 31.0484 23.275 31.0105C23.2209 30.9726 23.1813 30.917 23.163 30.8531L21.6349 26.3563H14.6867L13.288 30.779C13.2727 30.8591 13.2284 30.9305 13.1638 30.9795C13.0991 31.0284 13.0187 31.0513 12.9383 31.0437H9.44146C9.23864 31.0437 9.18269 30.9307 9.23864 30.6907L15.2182 13.254C15.2742 13.0634 15.3301 12.8587 15.4036 12.6328C15.48 12.2291 15.5175 11.8189 15.5155 11.408C15.5102 11.3606 15.5227 11.3129 15.5505 11.2743C15.5783 11.2358 15.6195 11.2092 15.6658 11.1997H20.495C20.6453 11.1997 20.7188 11.2562 20.7397 11.3515L27.5446 30.7401C27.6005 30.9484 27.5446 31.0437 27.3592 31.0437V31.0613ZM33.7934 30.8496C33.7934 31.0578 33.72 31.1496 33.5521 31.1496H29.8944C29.8554 31.1526 29.8162 31.1467 29.7797 31.1325C29.7432 31.1182 29.7104 31.0958 29.6835 31.0671C29.6567 31.0383 29.6366 31.0038 29.6247 30.9662C29.6128 30.9285 29.6094 30.8887 29.6147 30.8496V16.339C29.6147 16.1519 29.6916 16.0778 29.8595 16.0778H33.5696C33.7375 16.0778 33.8109 16.1695 33.8109 16.339L33.7934 30.8496ZM33.4018 13.8364C33.1819 14.0619 32.9168 14.2374 32.6244 14.3512C32.3319 14.4651 32.0187 14.5146 31.7058 14.4965C31.3994 14.5033 31.0947 14.4484 30.8095 14.3351C30.5243 14.2218 30.2644 14.0523 30.0448 13.8364C29.6156 13.3656 29.3881 12.7427 29.4119 12.1033C29.3988 11.7932 29.4509 11.4837 29.5648 11.1954C29.6788 10.907 29.8519 10.6462 30.0728 10.4303C30.5196 10.0017 31.1139 9.76506 31.7303 9.77021C32.0436 9.75386 32.3568 9.80417 32.6495 9.91788C32.9423 10.0316 33.2081 10.2062 33.4297 10.4303C33.8419 10.8864 34.0625 11.4862 34.0452 12.1033C34.0577 12.4209 34.0072 12.7378 33.8967 13.0354C33.7862 13.333 33.618 13.6054 33.4018 13.8364ZM20.5159 22.5336H15.7777C16.0575 21.7429 16.3372 20.857 16.5995 19.8969C16.8617 18.9368 17.1765 18.0156 17.4562 17.112C17.7109 16.3148 17.9222 15.5041 18.0891 14.6835H18.1276C18.257 15.1353 18.3899 15.626 18.5367 16.1519C18.6836 16.6778 18.8549 17.2426 19.0403 17.8285C19.2256 18.4144 19.39 18.9757 19.5823 19.5581C19.7746 20.1405 19.932 20.6699 20.0858 21.1782C20.2397 21.6865 20.404 22.1383 20.5159 22.5336Z" fill="black"/>
</svg>
