<svg width="45" height="45" viewBox="0 0 45 45" fill="none" xmlns="http://www.w3.org/2000/svg">
<g clip-path="url(#clip0_428_1257)">
<path d="M23.1449 24.4484C23.23 22.9683 23.9553 21.6621 25.0505 20.737C26.1994 19.7819 27.6491 19.2642 29.1431 19.2754C30.7157 19.2754 32.1607 19.8304 33.2338 20.737C34.3291 21.6621 35.0525 22.9683 35.1357 24.4466C35.219 25.9692 34.6084 27.3809 33.5353 28.4299C32.3522 29.5569 30.777 30.1793 29.1431 30.1654C27.5079 30.1803 25.9312 29.5578 24.7471 28.4299C23.674 27.3809 23.0616 25.9692 23.1449 24.4484ZM13.5981 27.4401C13.6092 28.0211 13.7942 29.146 14.0717 30.0266C14.6724 31.9206 15.6781 33.6612 17.019 35.1275C18.4575 36.7113 20.2148 37.973 22.1754 38.8296C24.3085 39.7697 26.616 40.2489 28.947 40.2358C31.2774 40.2384 33.5824 39.7518 35.713 38.8074C37.671 37.9407 39.4262 36.6739 40.8656 35.0886C42.2071 33.6195 43.2122 31.8757 43.8111 29.9785C44.3862 28.1407 44.5442 26.1978 44.2736 24.2912C44.0151 22.4643 43.3746 20.7124 42.3939 19.1496C41.4853 17.6961 40.325 16.4162 38.9674 15.3697H38.9711L25.0986 4.71839L25.0616 4.69064C24.1514 3.99128 22.6213 3.99498 21.6204 4.69434C20.6083 5.4011 20.4936 6.57224 21.3928 7.31231L21.3909 7.31416L27.1745 12.0191L9.54257 12.0376H9.51852C8.0606 12.0394 6.66003 12.996 6.38251 14.206C6.09759 15.4363 7.08557 16.4576 8.60269 16.4632V16.4669L17.5389 16.4484L1.59062 28.6908L1.52771 28.7371C0.023539 29.8879 -0.461201 31.8046 0.486077 33.0165C1.44816 34.2505 3.49257 34.2524 5.0134 33.0239L13.7165 25.9026C13.7165 25.9026 13.587 26.8647 13.5981 27.4401ZM35.9664 30.6612C34.1718 32.4892 31.663 33.5253 28.9451 33.529C26.2254 33.5364 23.7147 32.5077 21.9201 30.6834C21.0722 29.833 20.4184 28.8093 20.0033 27.6825C19.6223 26.6226 19.4717 25.4936 19.5617 24.3708C19.6516 23.2481 19.9801 22.1575 20.5251 21.1718C21.0669 20.1973 21.7912 19.3362 22.6583 18.6352C24.4011 17.2143 26.6195 16.4465 28.9414 16.4428C31.2652 16.4391 33.4835 17.2014 35.2282 18.6167C36.1163 19.3401 36.8379 20.1968 37.3596 21.1459C37.8987 22.1189 38.2277 23.1942 38.3254 24.3023C38.4256 25.438 38.2746 26.582 37.8832 27.6529C37.4697 28.7822 36.8145 29.8085 35.9664 30.6612Z" fill="black"/>
</g>
<defs>
<clipPath id="clip0_428_1257">
<rect width="44.4036" height="44.4036" fill="white"/>
</clipPath>
</defs>
</svg>
