<svg width="45" height="45" viewBox="0 0 45 45" fill="none" xmlns="http://www.w3.org/2000/svg">
<g clip-path="url(#clip0_428_1259)">
<path d="M14.2807 0.255859H21.4759V14.6463H14.2808C4.79216 14.2754 4.69633 0.645432 14.2807 0.255859ZM14.2807 29.6522H21.4759V15.2618H14.2808C4.69641 15.6513 4.79216 29.2813 14.2807 29.6522ZM29.2867 0.255859H22.0914V14.6463H29.2867C38.903 14.1317 38.7832 0.5496 29.2867 0.255859ZM21.4759 37.463V30.2677H14.2808C8.40932 30.2677 4.69641 37.1516 8.7799 42.0961C12.6732 46.9969 21.476 44.5535 21.476 37.463M36.4965 22.457C36.4965 16.9273 30.4693 13.4527 25.6736 16.2175C20.8779 18.9823 20.8778 25.9317 25.6736 28.6966C30.4693 31.4614 36.4965 27.9866 36.4965 22.457Z" fill="black"/>
</g>
<defs>
<clipPath id="clip0_428_1259">
<rect width="44.3526" height="44.3526" fill="white"/>
</clipPath>
</defs>
</svg>
