<svg width="45" height="45" viewBox="0 0 45 45" fill="none" xmlns="http://www.w3.org/2000/svg">
<path fill-rule="evenodd" clip-rule="evenodd" d="M8.13809 0C5.97973 0 3.90978 0.843825 2.38359 2.34584C0.857404 3.84786 0 5.88503 0 8.00921V36.0414C0 38.1656 0.857404 40.2028 2.38359 41.7048C3.90978 43.2068 5.97973 44.0506 8.13809 44.0506H36.6214C38.7798 44.0506 40.8497 43.2068 42.3759 41.7048C43.9021 40.2028 44.7595 38.1656 44.7595 36.0414V8.00921C44.7595 5.88503 43.9021 3.84786 42.3759 2.34584C40.8497 0.843825 38.7798 0 36.6214 0H8.13809ZM12.2071 11.0127H10.1726V31.0357H14.2417V25.0288H17.2934C18.2286 25.0288 19.1545 24.8475 20.0185 24.4953C20.8824 24.1431 21.6674 23.6269 22.3286 22.9762C22.9899 22.3254 23.5144 21.5528 23.8722 20.7026C24.2301 19.8523 24.4143 18.941 24.4143 18.0207C24.4143 17.1004 24.2301 16.1891 23.8722 15.3388C23.5144 14.4886 22.9899 13.716 22.3286 13.0653C21.6674 12.4145 20.8824 11.8983 20.0185 11.5461C19.1545 11.1939 18.2286 11.0127 17.2934 11.0127H12.2071ZM17.2934 21.0242H14.2417V15.0173H17.2934C18.1028 15.0173 18.8791 15.3337 19.4514 15.897C20.0237 16.4602 20.3452 17.2241 20.3452 18.0207C20.3452 18.8173 20.0237 19.5812 19.4514 20.1445C18.8791 20.7077 18.1028 21.0242 17.2934 21.0242ZM27.4661 16.0184V31.0357H31.5351V22.5259C31.9123 21.8594 32.4486 21.2932 33.0976 20.876C33.8646 20.3914 34.9714 20.023 36.6214 20.023V16.0184C34.6357 16.0184 32.945 16.4109 31.5351 17.1397V16.0184H27.4661Z" fill="black"/>
</svg>
