<svg width="45" height="45" viewBox="0 0 45 45" fill="none" xmlns="http://www.w3.org/2000/svg">
<path d="M7.92593 0C3.54334 0 0 3.577 0 8.00112V36.0495C0 40.4736 3.54334 44.0506 7.92593 44.0506H36.8336C41.2162 44.0506 44.7595 40.4736 44.7595 36.0495V8.00112C44.7595 3.577 41.2162 0 36.8336 0H7.92593ZM16.0389 11.2011C17.5681 11.2011 18.8364 11.3889 19.8806 11.7843C20.8168 12.1054 21.6706 12.6329 22.3797 13.3285C22.9806 13.9371 23.4449 14.6688 23.7414 15.4742C24.0212 16.2648 24.1698 17.0742 24.1698 17.9213C24.1698 19.5403 23.7968 20.8769 23.0508 21.9311C22.3053 22.985 21.2611 23.776 20.0488 24.2278C18.7805 24.6987 17.3817 24.8678 15.8526 24.8678C15.405 24.8678 15.106 24.8678 14.9196 24.8491C14.7332 24.8304 14.472 24.8304 14.1178 24.8304V30.8732C14.1363 31.0049 14.0433 31.1182 13.9129 31.1369H10.2947C10.1457 31.1369 10.0716 31.061 10.0716 30.8916V11.5209C10.0716 11.3893 10.1275 11.3134 10.258 11.3134C10.5751 11.3134 10.8734 11.3134 11.3021 11.295C11.7497 11.276 12.2158 11.2767 12.7194 11.2576C13.2229 11.2389 13.7639 11.2386 14.3419 11.2199C14.9203 11.2008 15.4794 11.2011 16.0389 11.2011ZM16.4551 14.9087C16.3598 14.9069 16.2646 14.9071 16.1694 14.9094C15.6847 14.9094 15.2556 14.9098 14.9011 14.9289C14.5283 14.9098 14.2674 14.9285 14.137 14.9472V21.2724C14.3979 21.2915 14.6399 21.3098 14.8636 21.3098H15.8526C16.5799 21.3098 17.3072 21.1969 17.9972 20.971C18.5941 20.8016 19.1161 20.4437 19.5263 19.9732C19.918 19.5023 20.1047 18.8627 20.1047 18.0343C20.1219 17.4462 19.9732 16.8652 19.676 16.3591C19.3588 15.8699 18.9109 15.4929 18.3699 15.2861C17.766 15.039 17.1195 14.9218 16.4551 14.9087ZM32.0964 15.8699C32.8612 15.8699 33.6445 15.9256 34.4089 16.0386C34.9684 16.1138 35.509 16.2652 36.0125 16.4724C36.0873 16.4911 36.1618 16.5659 36.1989 16.6411C36.2178 16.7163 36.2367 16.7918 36.2367 16.867V19.9357C36.2369 19.9723 36.2285 20.0083 36.2124 20.041C36.1962 20.0737 36.1727 20.1021 36.1436 20.1239C35.9758 20.1616 35.8824 20.1616 35.8079 20.1239C35.2485 19.8228 34.6512 19.6159 34.0169 19.4843C33.3269 19.3336 32.637 19.239 31.9286 19.239C31.5554 19.2199 31.1635 19.2771 30.8092 19.371C30.5665 19.4275 30.3616 19.5595 30.2312 19.7476C30.1382 19.8983 30.0822 20.0865 30.0822 20.2559C30.0822 20.4253 30.1571 20.5947 30.269 20.7451C30.4368 20.9523 30.6603 21.1221 30.9026 21.2541C31.3351 21.4797 31.7769 21.6866 32.2268 21.8742C33.2339 22.2131 34.2036 22.6843 35.0988 23.2491C35.7142 23.6444 36.2178 24.1717 36.572 24.8117C36.872 25.4121 37.0196 26.0783 37.0014 26.7505C37.0166 27.6404 36.7626 28.5137 36.2734 29.2541C35.7534 30.0055 35.0277 30.5877 34.1851 30.9293C33.271 31.3247 32.152 31.5319 30.8092 31.5319C29.9511 31.5319 29.1126 31.4567 28.2733 31.2872C27.6155 31.1725 26.9758 30.9699 26.371 30.6847C26.2406 30.6095 26.1469 30.4775 26.1654 30.3268V27.0516C26.1654 26.9951 26.184 26.9196 26.2399 26.8822C26.2959 26.8444 26.3518 26.8638 26.4078 26.9012C27.1261 27.329 27.9066 27.6404 28.7206 27.8239C29.4294 28.012 30.1756 28.1059 30.9218 28.1059C31.6303 28.1059 32.1338 28.0117 32.4695 27.8423C32.7678 27.7106 32.9727 27.3905 32.9727 27.0516C32.9727 26.7883 32.8237 26.543 32.5251 26.298C32.2268 26.0534 31.6114 25.7714 30.6977 25.4138C29.7601 25.0805 28.8697 24.6249 28.0492 24.0584C27.4648 23.6381 26.9806 23.0915 26.6319 22.4584C26.3343 21.8638 26.187 21.2042 26.2032 20.5383C26.2032 19.7289 26.4266 18.9569 26.8368 18.2605C27.3029 17.5077 27.9936 16.9051 28.7957 16.5289C29.672 16.0771 30.7718 15.8699 32.0964 15.8699Z" fill="black"/>
</svg>
